<?xml version="1.0" encoding="utf-8"?>
<svg version="1.1" id="back" xmlns="http://www.w3.org/2000/svg" xmlns:xlink="http://www.w3.org/1999/xlink" x="0px" y="0px"
	 viewBox="0 0 32 32" enable-background="new 0 0 32 32" xml:space="preserve">
<path d="M18,0h-6c-0.55,0-1,0.45-1,1s0.45,1,1,1h6c6.617,0,12,4.856,12,11c0,6.145-5.383,10-12,10H3.483l5.304-5.436
	c0.389-0.389,0.389-1.025,0-1.414c-0.389-0.389-1.025-0.389-1.414,0l-7.056,7.056c-0.008,0.007-0.018,0.009-0.025,0.017
	c-0.389,0.389-0.389,1.025,0,1.414l7.071,7.071c0.389,0.389,1.025,0.389,1.414,0s0.389-1.025,0-1.414L3.483,25H18
	c7.72,0,14-4.832,14-12C32,5.832,25.72,0,18,0z"/>
</svg>
