<?xml version="1.0" encoding="utf-8"?>
<svg version="1.1" id="compare" xmlns="http://www.w3.org/2000/svg" xmlns:xlink="http://www.w3.org/1999/xlink" x="0px" y="0px"
	 viewBox="0 0 32 32" enable-background="new 0 0 32 32" xml:space="preserve">
<path d="M0,13.996v-4c0-1.654,1.346-3,3-3h25.544l-5.254-5.3c-0.382-0.385-0.382-1.016,0-1.402c0.389-0.392,1.025-0.392,1.414,0
	l7.009,7.071c0.382,0.385,0.382,1.016,0,1.402c-0.007,0.007-0.018,0.01-0.025,0.017l-6.995,7.056c-0.389,0.392-1.025,0.392-1.414,0
	c-0.382-0.385-0.382-1.016,0-1.402l5.394-5.442H3c-0.551,0-1,0.449-1,1v4c0,0.55-0.45,1-1,1S0,14.546,0,13.996z M31,17
	c-0.55,0-1,0.45-1,1v4c0,0.551-0.449,1-1,1H3.352l5.436-5.436c0.389-0.389,0.389-1.025,0-1.414c-0.389-0.389-1.025-0.389-1.414,0
	l-7.056,7.056c-0.008,0.007-0.018,0.009-0.025,0.017c-0.389,0.389-0.389,1.025,0,1.414l7.071,7.071c0.389,0.389,1.025,0.389,1.414,0
	s0.389-1.025,0-1.414L3.483,25H29c1.654,0,3-1.346,3-3v-4C32,17.45,31.55,17,31,17z"/>
</svg>
