<?xml version="1.0" encoding="utf-8"?>
<svg version="1.1" id="delete" xmlns="http://www.w3.org/2000/svg" xmlns:xlink="http://www.w3.org/1999/xlink" x="0px" y="0px"
	 viewBox="0 0 32 32" enable-background="new 0 0 32 32" xml:space="preserve">
<path d="M26,10v19c0,1.516-1.134,2.76-2.596,2.959C23.338,31.977,23.274,32,23.203,32H8.797c-0.071,0-0.135-0.023-0.201-0.041
	C7.134,31.76,6,30.516,6,29V10c0-0.55,0.45-1,1-1s1,0.45,1,1v19c0,0.551,0.449,1,1,1h2c0.551,0,1-0.449,1-1V10c0-0.55,0.45-1,1-1
	s1,0.45,1,1v19c0,0.551,0.449,1,1,1h2c0.551,0,1-0.449,1-1V10c0-0.55,0.45-1,1-1s1,0.45,1,1v19c0,0.551,0.449,1,1,1h2
	c0.551,0,1-0.449,1-1V10c0-0.55,0.45-1,1-1S26,9.45,26,10z M30,6c0,0.55-0.45,1-1,1H18.188h-4.375H3C2.45,7,2,6.55,2,6s0.45-1,1-1h7
	c0.551,0,1-0.449,1-1V3.042C11,3.027,11.008,3.015,11.008,3H11c0-1.654,1.346-3,3-3h4c1.654,0,3,1.346,3,3h-0.008
	C20.992,3.015,21,3.027,21,3.042V4c0,0.551,0.449,1,1,1h7C29.55,5,30,5.45,30,6z M18,5c0.551,0,1-0.449,1-1V3.042
	C19,3.027,19.008,3.015,19.008,3H19c0-0.551-0.449-1-1-1h-4c-0.551,0-1,0.449-1,1h-0.008C12.992,3.015,13,3.027,13,3.042V4
	c0,0.551,0.449,1,1,1H18z"/>
</svg>
