<?xml version="1.0" encoding="utf-8"?>
<svg version="1.1" id="pricewatcher_x5F_new" xmlns="http://www.w3.org/2000/svg" xmlns:xlink="http://www.w3.org/1999/xlink"
	 x="0px" y="0px" viewBox="0 0 32 32" enable-background="new 0 0 32 32" xml:space="preserve">
<path d="M10.482,3.564c-0.423,0.355-1.054,0.3-1.409-0.123C9.06,3.425,9.057,3.405,9.045,3.389l-0.012,0.01
	C7.608,1.737,5.109,1.524,3.428,2.935C1.747,4.346,1.522,6.844,2.911,8.536l-0.012,0.01c0.014,0.015,0.033,0.021,0.046,0.036
	c0.355,0.423,0.3,1.054-0.123,1.409c-0.423,0.355-1.054,0.3-1.409-0.123C1.4,9.853,1.397,9.833,1.385,9.817L1.378,9.823
	c-2.1-2.538-1.763-6.299,0.765-8.42c2.528-2.121,6.29-1.8,8.425,0.709L10.56,2.118c0.014,0.015,0.033,0.021,0.046,0.036
	C10.96,2.578,10.905,3.208,10.482,3.564z M16,10c-0.55,0-1,0.45-1,1v7h-5c-0.55,0-1,0.45-1,1s0.45,1,1,1h6c0.55,0,1-0.45,1-1v-8
	C17,10.45,16.55,10,16,10z M26.05,30.358c0.354,0.421,0.298,1.055-0.123,1.409c-0.421,0.354-1.055,0.298-1.409-0.123l-1.286-1.532
	c-0.027-0.032-0.036-0.072-0.058-0.106C21.075,31.263,18.626,32,16,32c-2.539,0-4.913-0.686-6.967-1.868l-1.269,1.512
	c-0.354,0.421-0.987,0.477-1.409,0.123c-0.421-0.354-0.477-0.988-0.123-1.409l1.134-1.352C4.104,26.444,2,22.471,2,18
	C2,10.268,8.268,4,16,4s14,6.268,14,14c0,4.393-2.027,8.31-5.193,10.877L26.05,30.358z M16,30c6.627,0,12-5.373,12-12
	c0-6.627-5.373-12-12-12C9.373,6,4,11.373,4,18C4,24.627,9.373,30,16,30z M29.858,1.403c-2.528-2.121-6.29-1.8-8.425,0.709
	l0.007,0.006c-0.014,0.015-0.033,0.021-0.046,0.036c-0.355,0.423-0.3,1.054,0.123,1.409c0.423,0.355,1.054,0.3,1.409-0.123
	c0.013-0.016,0.016-0.035,0.028-0.051l0.012,0.01c1.425-1.662,3.924-1.875,5.605-0.464c1.681,1.411,1.906,3.909,0.517,5.601
	l0.012,0.01c-0.014,0.015-0.033,0.021-0.046,0.036c-0.355,0.423-0.3,1.054,0.123,1.409c0.423,0.355,1.054,0.3,1.409-0.123
	c0.013-0.016,0.016-0.035,0.028-0.051l0.007,0.006C32.723,7.285,32.385,3.524,29.858,1.403z"/>
</svg>
